PathFileType	4	(X/Y/Z)	Walk3.trc
DataRate	CameraRate	NumFrames	NumMarkers	Units	OrigDataRate	OrigDataStartFrame	OrigNumFrames
200.000000	200.000000	4	61	mm	200.000000	568	737
Frame#	Times		LTH3		RCAR		LBHD		RTH2		LWRU		LUA1		LElbow		RTH3		LFA1		LCAR		C7		RPSI		LElbowM		RTB3		RBHD		RASI		RTB1		RTB2		RToe		LTH4		RFA1		RMT5		RWRU		LWRR		LTH2		RLFC		RElbow		RTB4		RMT1		RMMAL		T10		RBack		RLMAL		STRN		LASI		LPSI		CLAV		RCAL		RUA1		RElbowM		LLFC		LFHD		LACR1		LTB3		RFHD		LTB4		LCAL		RACR1		LTB2		LMMAL		RTH1		LTB1		LMT5		LLMAL		RTH4		LMFC		RWRR		RMFC		LTH1		LToe		LMT1
			X1	Y1	Z1	X2	Y2	Z2	X3	Y3	Z3	X4	Y4	Z4	X5	Y5	Z5	X6	Y6	Z6	X7	Y7	Z7	X8	Y8	Z8	X9	Y9	Z9	X10	Y10	Z10	X11	Y11	Z11	X12	Y12	Z12	X13	Y13	Z13	X14	Y14	Z14	X15	Y15	Z15	X16	Y16	Z16	X17	Y17	Z17	X18	Y18	Z18	X19	Y19	Z19	X20	Y20	Z20	X21	Y21	Z21	X22	Y22	Z22	X23	Y23	Z23	X24	Y24	Z24	X25	Y25	Z25	X26	Y26	Z26	X27	Y27	Z27	X28	Y28	Z28	X29	Y29	Z29	X30	Y30	Z30	X31	Y31	Z31	X32	Y32	Z32	X33	Y33	Z33	X34	Y34	Z34	X35	Y35	Z35	X36	Y36	Z36	X37	Y37	Z37	X38	Y38	Z38	X39	Y39	Z39	X40	Y40	Z40	X41	Y41	Z41	X42	Y42	Z42	X43	Y43	Z43	X44	Y44	Z44	X45	Y45	Z45	X46	Y46	Z46	X47	Y47	Z47	X48	Y48	Z48	X49	Y49	Z49	X50	Y50	Z50	X51	Y51	Z51	X52	Y52	Z52	X53	Y53	Z53	X54	Y54	Z54	X55	Y55	Z55	X56	Y56	Z56	X57	Y57	Z57	X58	Y58	Z58	X59	Y59	Z59	X60	Y60	Z60	X61	Y61	Z61

568	2.84	274.78	614.69	-156.35	350.98	835.63	320.58	206.11	1650.7	-53.1	326.13	716.87	179.93	221.38	862.98	-256.02	188.37	1297.5	-237.82	161.82	1142.3	-258.96	262.74	617.05	199.62	186.26	992.97	-267.42	293.68	824.2	-263.67	174.39	1519	23.819	69.068	1028.4	85.969	130.38	1133	-188.35	262.1	189.02	95.217	213	1652	88.798	282.13	1047.1	170.34	299.24	370.85	114.61	256.06	274.13	168.84	399.99	31.761	117.29	257.44	705.45	-161.26	251.53	993.28	337.34	293.91	25.176	170.39	287.89	860.08	329.05	290.54	876.68	-210.5	326.27	720.25	-143.66	258.7	498.88	188.95	218.85	1140.6	321	281.07	279.75	103.65	346.94	38.579	93.201	239.76	93.939	53.946	61.783	1298.4	34.668	105.54	1433.6	163.73	202.75	69.636	131.85	339.76	1251	9.0073	260.37	1038.8	-116.9	60.196	1021.6	8.6515	301.59	1425.1	14.719	149	34.438	79.831	243.68	1293.9	277.56	173.09	1123.9	255.64	274.76	519.89	-152	387.94	1679.2	-17.441	231.98	1469.7	-146.6	109.3	259.39	-93.961	391.07	1678.9	59.268	183.02	321.6	-92.271	-82.871	205.96	-75.281	260.94	1463.2	176.88	160.42	349.26	-159.27	25.816	190.7	-54.344	253.67	806.79	222.59	251.2	379.7	-93.402	11.052	96.518	-168.66	-19.255	203.87	-130.01	261.64	710.45	215.92	311.18	516.59	-26.584	331.91	871.98	267.42	264.12	516.04	57.875	243.85	797.88	-164.26	96.444	52.318	-120.61	60.541	73.038	-95.76
569	2.845	282.91	615.99	-156.11	361.95	837.26	318.94	210.91	1651.1	-52.568	328.97	716.45	180.03	221.9	863.1	-254.83	191.62	1297.9	-237.25	164.1	1142.7	-258.01	264.88	617.09	199.73	187.57	993.27	-266.29	293.92	823.77	-262.35	179.11	1519.4	24.301	73.618	1028.8	86.289	132.75	1133.8	-187.34	262.43	188.92	95.19	217.8	1652.4	89.331	285.78	1047.6	170.92	300.12	370.66	114.62	256.62	274.05	168.82	400.03	31.722	117.33	264.64	706.62	-161.1	261.08	993.8	336.99	293.91	25.178	170.38	298.64	860.96	328.11	291.16	876.41	-209.32	333.45	722.04	-143.44	260.01	498.86	188.95	226.89	1140.9	321.3	281.66	279.6	103.65	346.95	38.577	93.211	239.79	93.905	53.932	66.446	1298.9	35.25	110.35	1434	164.29	202.74	69.707	131.84	344.43	1251.4	9.2956	265.18	1039.3	-116.42	64.695	1022	8.9008	306.29	1425.5	15.129	148.97	34.514	79.753	250.23	1294.4	277.65	180.59	1123.9	256.33	283.73	521.33	-151.63	392.75	1679.5	-16.884	236.39	1470	-146.25	121.38	258.83	-93.61	395.89	1679.2	59.822	194.38	321.86	-92.022	-70.258	202.66	-74.549	265.76	1463.7	177.23	171.12	349.59	-158.8	38.818	189.1	-53.837	257.23	806.93	222.73	261.96	380.75	-93.248	25.474	95.289	-168.5	-6.6077	201.83	-129.39	264.55	710.64	216.13	320.31	518.28	-26.371	341.87	873.41	265.98	265.51	516.05	57.837	250.14	798.94	-164.04	111.7	51.975	-120.89	75.564	72.31	-95.837
570	2.85	290.98	617.29	-155.87	372.9	838.94	317.27	215.71	1651.6	-52.062	331.8	716.03	180.12	222.46	863.25	-253.61	194.83	1298.2	-236.69	166.34	1143.2	-257.08	266.98	617.12	199.83	188.88	993.59	-265.16	294.21	823.39	-261.03	183.83	1519.8	24.764	78.163	1029.2	86.581	135.1	1134.6	-186.35	262.76	188.82	95.162	222.59	1652.8	89.838	289.43	1048.1	171.53	300.98	370.47	114.62	257.18	273.98	168.81	400.06	31.684	117.37	271.82	707.78	-160.95	270.61	994.34	336.59	293.9	25.18	170.38	309.38	861.9	327.12	291.83	876.19	-208.15	340.58	723.81	-143.2	261.3	498.85	188.95	234.89	1141.2	321.54	282.25	279.46	103.65	346.95	38.576	93.225	239.81	93.867	53.925	71.103	1299.3	35.798	115.16	1434.4	164.83	202.72	69.784	131.83	349.11	1251.8	9.5904	270.02	1039.9	-115.91	69.179	1022.5	9.1215	310.97	1425.8	15.527	148.94	34.592	79.679	256.75	1295	277.72	188.12	1123.9	256.95	292.61	522.74	-151.26	397.57	1679.9	-16.351	240.8	1470.4	-145.9	133.56	258.13	-93.232	400.71	1679.5	60.353	205.78	322.06	-91.732	-57.456	199.07	-73.852	270.56	1464.2	177.57	181.86	349.78	-158.31	51.975	187.31	-53.322	260.76	807.06	222.84	272.69	381.78	-93.046	40.162	93.842	-168.29	6.2214	199.52	-128.77	267.41	710.82	216.3	329.33	519.98	-26.14	351.86	874.89	264.5	266.89	516.06	57.795	256.4	799.98	-163.82	127.22	51.528	-121.07	90.828	71.441	-95.844
571	2.855	298.98	618.59	-155.6	383.84	840.68	315.58	220.51	1652	-51.579	334.63	715.59	180.21	223.07	863.41	-252.37	198.02	1298.6	-236.17	168.56	1143.7	-256.18	269.06	617.16	199.92	190.19	993.91	-264.04	294.54	823.06	-259.72	188.53	1520.2	25.21	82.701	1029.6	86.844	137.43	1135.4	-185.38	263.07	188.73	95.135	227.38	1653.1	90.319	293.1	1048.6	172.17	301.82	370.3	114.62	257.73	273.91	168.79	400.09	31.647	117.42	278.97	708.94	-160.81	280.11	994.91	336.14	293.88	25.183	170.38	320.11	862.9	326.08	292.54	876.04	-206.99	347.66	725.56	-142.95	262.55	498.84	188.95	242.84	1141.5	321.74	282.82	279.33	103.63	346.96	38.578	93.243	239.81	93.824	53.925	75.755	1299.7	36.312	119.94	1434.7	165.35	202.7	69.864	131.83	353.79	1252.1	9.8918	274.87	1040.5	-115.36	73.652	1022.9	9.3159	315.66	1426.2	15.912	148.9	34.672	79.61	263.23	1295.5	277.76	195.65	1123.9	257.49	301.4	524.12	-150.87	402.4	1680.2	-15.842	245.22	1470.7	-145.58	145.83	257.3	-92.823	405.53	1679.8	60.861	217.19	322.18	-91.398	-44.461	195.18	-73.189	275.34	1464.7	177.9	192.62	349.83	-157.8	65.284	185.32	-52.804	264.28	807.17	222.93	283.36	382.79	-92.789	55.111	92.192	-168.04	19.234	196.96	-128.17	270.25	710.98	216.43	338.26	521.68	-25.888	361.87	876.42	263	268.25	516.08	57.75	262.62	801	-163.61	142.99	50.991	-121.17	106.33	70.447	-95.787
